<svg width="34" height="34" fill="none" xmlns="http://www.w3.org/2000/svg">
  <rect width="34" height="34" rx="17" fill="#000"/>
  <path fill-rule="evenodd" clip-rule="evenodd" d="M18.7919 18.2638c-1.4319 1.4319-3.7535 1.4319-5.1854 0-1.4319-1.4319-1.4319-3.7535 0-5.1855 1.4319-1.4319 3.7535-1.4319 5.1854 0 1.432 1.432 1.432 3.7536 0 5.1855Zm.4404 1.383c-1.9602 1.4994-4.7758 1.3526-6.5686-.4402-1.9526-1.9526-1.9526-5.1184 0-7.0711 1.9526-1.9526 5.1184-1.9526 7.0711 0 1.7927 1.7928 1.9395 4.6082.4403 6.5684l3.5667 3.5667-.9428.9428-3.5667-3.5666Z" fill="#fff"/>
</svg>
